<svg
  class="footer_list_ico linkedin"
  xmlns="https://www.w3.org/2000/svg"
  viewBox="0 0 400 400">
  <!-- <style type="text/css">
    .st1,
    .st0 {
      fill: none;
      stroke-width: 18;
      stroke-miterlimit: 10;
      stroke: #999999;
    }
  </style> -->

  <g shape-rendering="geometricPrecision">
    <path
      d="M362.1,10.5H37.8c-15.5,0-28.1,12.2-28.1,27.3v324.3c0,15.1,12.6,27.3,28.1,27.3h324.4 c15.5,0,28.2-12.3,28.2-27.3V37.8C390.3,22.7,377.7,10.5,362.1,10.5z"></path>

    <path
      d="M66.1,152.6h56.5v180.9H66.1V152.6z M94.4,62.7c18,0,32.7,14.6,32.7,32.6c0,18-14.7,32.6-32.7,32.6 c-18.1,0-32.7-14.6-32.7-32.6C61.6,77.3,76.3,62.7,94.4,62.7"></path>

    <path
      d="M158,152.6h54.2v24.7h0.8c7.5-14.2,26-29.2,53.4-29.2c57.2,0,67.7,37.5,67.7,86.2v99.2h-56.4v-88 c0-21-0.4-48-29.3-48c-29.4,0-33.9,22.9-33.9,46.4v89.5H158V152.6z"></path>
  </g>
</svg>
