<svg class="mail" viewBox="0 0 32 32" xmlns="https://www.w3.org/2000/svg">
  <path
    d="M26 15.022v-6.016c0-.29-.119-.551-.313-.735l-7.737 6.728 2.916 2.536c.978-1.525 2.688-2.536 4.634-2.536l.5.022zm-5.599 3.412l-3.199-2.783-2.702 2.349-2.702-2.349-7.298 6.349h15.707c-.135-.477-.207-.98-.207-1.5 0-.731.142-1.428.401-2.066zm.199 4.566h-16.596c-1.114 0-2.004-.893-2.004-1.994v-12.012c0-1.1.897-1.994 2.004-1.994h20.993c1.114 0 2.004.893 2.004 1.994v6.213c2.309.653 4 2.775 4 5.293 0 3.038-2.462 5.5-5.5 5.5-2.137 0-3.99-1.219-4.9-3zm-17.285-14.726c-.194.183-.315.444-.315.733v11.986c0 .29.119.551.313.735l7.737-6.728-7.735-6.726zm11.185 8.426l10-8.7h-20l10 8.7zm11 8.3c2.485 0 4.5-2.015 4.5-4.5s-2.015-4.5-4.5-4.5-4.5 2.015-4.5 4.5 2.015 4.5 4.5 4.5zm-.5-1.757l-2.354-2.354.732-.732 1.621 1.621 3.121-3.121.732.732-3.854 3.854z"></path>
</svg>
