<svg
  class="footer_list_ico qr_to_here"
  xmlns="https://www.w3.org/2000/svg"
  viewBox="0 0 2320 2320">
  <title>QR Code</title>
  <desc>https://roccomarosi.com</desc>

  <path fill="#FFF" d="M0 0h2320v2320H0z"></path>
  <path
    d="M800 160h80v80h-80zM1040 160h80v80h-80zM1120 160h80v80h-80zM1200 160h80v80h-80zM800 240h80v80h-80zM880 240h80v80h-80zM1280 240h80v80h-80zM1440 240h80v80h-80zM800 320h80v80h-80zM880 320h80v80h-80zM960 320h80v80h-80zM1040 320h80v80h-80zM1120 320h80v80h-80zM1200 320h80v80h-80zM1280 320h80v80h-80zM960 400h80v80h-80zM1120 400h80v80h-80zM1200 400h80v80h-80zM1360 400h80v80h-80zM1440 400h80v80h-80zM800 480h80v80h-80zM880 480h80v80h-80zM960 480h80v80h-80zM1200 480h80v80h-80zM1280 480h80v80h-80zM1440 480h80v80h-80zM960 560h80v80h-80zM1120 560h80v80h-80zM1440 560h80v80h-80zM800 640h80v80h-80zM960 640h80v80h-80zM1120 640h80v80h-80zM1280 640h80v80h-80zM1440 640h80v80h-80zM960 720h80v80h-80zM1040 720h80v80h-80zM1120 720h80v80h-80zM1200 720h80v80h-80zM1360 720h80v80h-80zM160 800h80v80h-80zM400 800h80v80h-80zM480 800h80v80h-80zM560 800h80v80h-80zM640 800h80v80h-80zM720 800h80v80h-80zM800 800h80v80h-80zM960 800h80v80h-80zM1360 800h80v80h-80zM1520 800h80v80h-80zM1760 800h80v80h-80zM1920 800h80v80h-80zM2000 800h80v80h-80zM2080 800h80v80h-80zM160 880h80v80h-80zM240 880h80v80h-80zM480 880h80v80h-80zM1040 880h80v80h-80zM1200 880h80v80h-80zM1280 880h80v80h-80zM1360 880h80v80h-80zM1680 880h80v80h-80zM1760 880h80v80h-80zM1840 880h80v80h-80zM1920 880h80v80h-80zM2000 880h80v80h-80zM320 960h80v80h-80zM480 960h80v80h-80zM560 960h80v80h-80zM640 960h80v80h-80zM880 960h80v80h-80zM1120 960h80v80h-80zM1200 960h80v80h-80zM1360 960h80v80h-80zM1440 960h80v80h-80zM1840 960h80v80h-80zM2080 960h80v80h-80zM160 1040h80v80h-80zM240 1040h80v80h-80zM320 1040h80v80h-80zM560 1040h80v80h-80zM720 1040h80v80h-80zM800 1040h80v80h-80zM960 1040h80v80h-80zM1440 1040h80v80h-80zM1840 1040h80v80h-80zM1920 1040h80v80h-80zM2000 1040h80v80h-80zM2080 1040h80v80h-80zM240 1120h80v80h-80zM320 1120h80v80h-80zM400 1120h80v80h-80zM480 1120h80v80h-80zM560 1120h80v80h-80zM640 1120h80v80h-80zM880 1120h80v80h-80zM1040 1120h80v80h-80zM1120 1120h80v80h-80zM1360 1120h80v80h-80zM1440 1120h80v80h-80zM1600 1120h80v80h-80zM2080 1120h80v80h-80zM160 1200h80v80h-80zM1200 1200h80v80h-80zM1280 1200h80v80h-80zM1360 1200h80v80h-80zM1440 1200h80v80h-80zM1760 1200h80v80h-80zM2000 1200h80v80h-80zM160 1280h80v80h-80zM240 1280h80v80h-80zM640 1280h80v80h-80zM800 1280h80v80h-80zM880 1280h80v80h-80zM960 1280h80v80h-80zM1040 1280h80v80h-80zM1120 1280h80v80h-80zM1360 1280h80v80h-80zM1600 1280h80v80h-80zM1760 1280h80v80h-80zM1840 1280h80v80h-80zM1920 1280h80v80h-80zM2000 1280h80v80h-80zM2080 1280h80v80h-80zM160 1360h80v80h-80zM320 1360h80v80h-80zM400 1360h80v80h-80zM960 1360h80v80h-80zM1040 1360h80v80h-80zM1520 1360h80v80h-80zM1680 1360h80v80h-80zM1840 1360h80v80h-80zM1920 1360h80v80h-80zM2080 1360h80v80h-80zM160 1440h80v80h-80zM320 1440h80v80h-80zM400 1440h80v80h-80zM480 1440h80v80h-80zM640 1440h80v80h-80zM880 1440h80v80h-80zM1200 1440h80v80h-80zM1440 1440h80v80h-80zM1520 1440h80v80h-80zM1600 1440h80v80h-80zM1680 1440h80v80h-80zM1760 1440h80v80h-80zM1920 1440h80v80h-80zM2000 1440h80v80h-80zM800 1520h80v80h-80zM880 1520h80v80h-80zM960 1520h80v80h-80zM1040 1520h80v80h-80zM1120 1520h80v80h-80zM1200 1520h80v80h-80zM1440 1520h80v80h-80zM1760 1520h80v80h-80zM1920 1520h80v80h-80zM2000 1520h80v80h-80zM800 1600h80v80h-80zM880 1600h80v80h-80zM960 1600h80v80h-80zM1040 1600h80v80h-80zM1440 1600h80v80h-80zM1600 1600h80v80h-80zM1760 1600h80v80h-80zM2080 1600h80v80h-80zM800 1680h80v80h-80zM880 1680h80v80h-80zM1120 1680h80v80h-80zM1200 1680h80v80h-80zM1360 1680h80v80h-80zM1440 1680h80v80h-80zM1760 1680h80v80h-80zM2000 1680h80v80h-80zM800 1760h80v80h-80zM880 1760h80v80h-80zM1120 1760h80v80h-80zM1280 1760h80v80h-80zM1360 1760h80v80h-80zM1440 1760h80v80h-80zM1520 1760h80v80h-80zM1600 1760h80v80h-80zM1680 1760h80v80h-80zM1760 1760h80v80h-80zM2000 1760h80v80h-80zM2080 1760h80v80h-80zM800 1840h80v80h-80zM880 1840h80v80h-80zM960 1840h80v80h-80zM1200 1840h80v80h-80zM1280 1840h80v80h-80zM1360 1840h80v80h-80zM1520 1840h80v80h-80zM1600 1840h80v80h-80zM2000 1840h80v80h-80zM2080 1840h80v80h-80zM960 1920h80v80h-80zM1120 1920h80v80h-80zM1440 1920h80v80h-80zM1520 1920h80v80h-80zM1760 1920h80v80h-80zM1840 1920h80v80h-80zM1920 1920h80v80h-80zM2000 1920h80v80h-80zM2080 1920h80v80h-80zM960 2000h80v80h-80zM1280 2000h80v80h-80zM1520 2000h80v80h-80zM1600 2000h80v80h-80zM1680 2000h80v80h-80zM1760 2000h80v80h-80zM1920 2000h80v80h-80zM2000 2000h80v80h-80zM2080 2000h80v80h-80zM800 2080h80v80h-80zM960 2080h80v80h-80zM1120 2080h80v80h-80zM1200 2080h80v80h-80zM1280 2080h80v80h-80zM1440 2080h80v80h-80zM1840 2080h80v80h-80zM2080 2080h80v80h-80z"></path>
  <path fill="none" d="M244 244h392v392H244z"></path>
  <path d="M636 160H160v560h560V160h-84zm0 476H244V244h392v392z"></path>
  <path fill="none" d="M1684 244h392v392h-392z"></path>
  <path d="M2076 160h-476v560h560V160h-84zm0 476h-392V244h392v392z"></path>
  <path fill="none" d="M244 1684h392v392H244z"></path>
  <path d="M636 1600H160v560h560v-560h-84zm0 476H244v-392h392v392z"></path>
  <g>
    <path d="M320 320h240v240H320z"></path>
  </g>
  <g>
    <path d="M1760 320h240v240h-240z"></path>
  </g>
  <g>
    <path d="M320 1760h240v240H320z"></path>
  </g>
</svg>
