<?xml version="1.0" standalone="no"?>
<!DOCTYPE svg PUBLIC "-//W3C//DTD SVG 20010904//EN"
 "http://www.w3.org/TR/2001/REC-SVG-20010904/DTD/svg10.dtd">
<svg version="1.0" xmlns="https://www.w3.org/2000/svg"
 width="1000.000000pt" height="1000.000000pt" viewBox="0 0 1000.000000 1000.000000"
 preserveAspectRatio="xMidYMid meet">
<metadata>
Created by potrace 1.11, written by Peter Selinger 2001-2013
</metadata>
<g transform="translate(0.000000,1000.000000) scale(0.100000,-0.100000)"
fill="#000000" stroke="none">
<path d="M5358 8515 c-2 -2 -21 -5 -43 -8 -111 -15 -235 -80 -350 -181 -51
-45 -117 -120 -193 -221 -17 -22 -107 -160 -112 -170 -17 -38 -211 -343 -258
-406 -132 -176 -240 -263 -372 -299 -52 -14 -64 -16 -230 -25 -69 -3 -143 -8
-165 -10 -22 -2 -83 -7 -135 -10 -52 -3 -117 -8 -145 -10 -27 -3 -90 -7 -140
-10 -49 -3 -112 -7 -140 -10 -27 -2 -90 -7 -140 -10 -49 -3 -112 -8 -140 -10
-27 -2 -88 -7 -135 -10 -47 -3 -110 -8 -140 -10 -30 -2 -95 -6 -145 -10 -49
-3 -112 -7 -140 -10 -27 -2 -90 -7 -140 -10 -49 -3 -112 -8 -140 -10 -27 -3
-90 -7 -140 -10 -242 -14 -413 -62 -614 -172 -78 -42 -239 -147 -251 -162 -3
-4 -18 -17 -35 -30 -65 -50 -191 -178 -254 -260 -120 -154 -195 -309 -237
-486 -4 -16 -9 -37 -12 -45 -2 -8 -5 -890 -6 -1959 -1 -1510 2 -1958 11 -2005
41 -200 202 -367 431 -445 l77 -26 3980 0 c2189 0 4003 4 4030 8 167 27 288
82 385 177 88 85 168 212 186 295 15 65 24 120 29 172 3 32 8 74 10 93 4 32 7
67 20 250 5 58 13 213 20 365 25 537 25 1623 0 2315 -7 179 -24 508 -30 580
-2 25 -7 95 -10 155 -3 61 -8 121 -10 135 -2 14 -7 68 -10 120 -3 52 -7 102
-10 110 -2 8 -6 41 -10 73 -9 87 -51 223 -93 301 -48 89 -144 184 -227 225
-36 18 -65 35 -65 39 1 4 11 49 24 101 13 52 22 112 20 134 -4 56 -38 118 -82
149 -31 21 -256 99 -358 123 -11 3 -77 20 -149 40 -117 31 -310 78 -375 91
-14 2 -50 10 -80 16 -60 13 -65 13 -130 24 -25 4 -52 9 -60 11 -49 12 -160 14
-200 3 -52 -14 -108 -68 -117 -111 -4 -24 -8 -27 -19 -18 -21 17 -93 139 -159
269 -70 138 -120 232 -152 282 -13 21 -23 40 -23 43 0 25 -159 229 -220 281
-14 12 -38 34 -55 48 -48 42 -192 112 -240 117 -2 0 -19 5 -37 11 -22 7 -249
12 -690 13 -362 1 -659 1 -660 0z m697 -2038 c76 -7 121 -13 205 -28 92 -17
102 -19 191 -44 299 -84 571 -229 829 -441 61 -50 215 -209 277 -286 238 -294
392 -633 459 -1013 33 -189 37 -498 9 -665 -3 -14 -7 -40 -10 -58 -34 -209
-121 -464 -222 -650 -315 -586 -857 -990 -1503 -1121 -150 -31 -202 -35 -410
-36 -178 0 -273 5 -355 21 -331 61 -595 163 -842 326 -510 337 -837 826 -960
1438 -22 111 -31 256 -28 430 2 107 6 206 9 220 2 14 8 43 11 65 4 22 9 54 11
70 3 17 16 73 29 125 143 571 520 1072 1026 1362 285 163 588 259 904 284 44
3 81 7 82 8 4 4 220 -2 288 -7z m-2887 -1047 c12 -12 22 -30 22 -40 0 -26 -34
-60 -60 -60 -23 0 -60 37 -60 61 0 22 38 59 60 59 9 0 26 -9 38 -20z m37 -466
c33 -35 31 -69 -4 -104 -35 -35 -74 -33 -108 6 -27 29 -28 45 -8 84 25 48 82
55 120 14z"/>
<path d="M5738 6085 c-2 -1 -32 -5 -68 -9 -36 -3 -76 -8 -90 -11 -14 -3 -38
-8 -55 -10 -64 -12 -164 -39 -245 -67 -724 -254 -1206 -944 -1194 -1710 1 -59
5 -127 8 -150 3 -24 9 -63 12 -88 32 -241 139 -515 287 -734 127 -189 334
-390 524 -509 227 -143 512 -240 773 -264 243 -23 487 2 711 73 583 184 1038
660 1190 1244 21 84 26 104 35 165 3 22 9 60 14 84 9 51 6 397 -5 451 -40 208
-42 214 -61 274 -92 290 -242 538 -448 741 -98 96 -126 121 -208 180 -35 25
-67 48 -73 53 -15 12 -93 56 -165 94 -164 86 -372 151 -590 183 -46 7 -346 16
-352 10z"/>
</g>
</svg>
